<svg width="16" height="16" viewBox="0 0 16 16" fill="none" xmlns="http://www.w3.org/2000/svg">
<path d="M2.39961 3.20002C2.39961 3.64252 2.75711 4.00002 3.19961 4.00002H8.79961C9.24211 4.00002 9.59961 3.64252 9.59961 3.20002C9.59961 2.75752 9.24211 2.40002 8.79961 2.40002H3.19961C2.75711 2.40002 2.39961 2.75752 2.39961 3.20002ZM2.39961 9.60002C2.39961 10.0425 2.75711 10.4 3.19961 10.4H8.79961C9.24211 10.4 9.59961 10.0425 9.59961 9.60002C9.59961 9.15752 9.24211 8.80002 8.79961 8.80002H3.19961C2.75711 8.80002 2.39961 9.15752 2.39961 9.60002ZM13.5996 6.40002C13.5996 5.95752 13.2421 5.60002 12.7996 5.60002H3.19961C2.75711 5.60002 2.39961 5.95752 2.39961 6.40002C2.39961 6.84252 2.75711 7.20002 3.19961 7.20002H12.7996C13.2421 7.20002 13.5996 6.84252 13.5996 6.40002ZM2.39961 12.8C2.39961 13.2425 2.75711 13.6 3.19961 13.6H12.7996C13.2421 13.6 13.5996 13.2425 13.5996 12.8C13.5996 12.3575 13.2421 12 12.7996 12H3.19961C2.75711 12 2.39961 12.3575 2.39961 12.8Z" fill="#9CA3AF"/>
</svg>
